PathFileType	4	(X/Y/Z)	s11c0401.trc
DataRate	CameraRate	NumFrames	NumMarkers	Units	OrigDataRate	OrigDataStartFrame	OrigNumFrames
200	200	4	48	mm	200	500	2000
Frame#	Time	racr			lacr			c7			jug			rlel			rdr			llel			ldr			s2			lic			ric			lasi			rasi			rpsi			lpsi			rgt			lgt			rth1			rth2			rth3			rth4			rlfc			rmfc			rsh1			rsh2			rsh3			rsh4			rlmal			rcal			rtoe			rmt5			lth1			lth2			lth4			lth3			llfc			lmfc			llmal			lcal			lmt5			lsh1			lsh2			lsh3			lsh4			ltoe			SBIKE			LBIKE			RBIKE			
		X1	Y1	Z1	X2	Y2	Z2	X3	Y3	Z3	X4	Y4	Z4	X5	Y5	Z5	X6	Y6	Z6	X7	Y7	Z7	X8	Y8	Z8	X9	Y9	Z9	X10	Y10	Z10	X11	Y11	Z11	X12	Y12	Z12	X13	Y13	Z13	X14	Y14	Z14	X15	Y15	Z15	X16	Y16	Z16	X17	Y17	Z17	X18	Y18	Z18	X19	Y19	Z19	X20	Y20	Z20	X21	Y21	Z21	X22	Y22	Z22	X23	Y23	Z23	X24	Y24	Z24	X25	Y25	Z25	X26	Y26	Z26	X27	Y27	Z27	X28	Y28	Z28	X29	Y29	Z29	X30	Y30	Z30	X31	Y31	Z31	X32	Y32	Z32	X33	Y33	Z33	X34	Y34	Z34	X35	Y35	Z35	X36	Y36	Z36	X37	Y37	Z37	X38	Y38	Z38	X39	Y39	Z39	X40	Y40	Z40	X41	Y41	Z41	X42	Y42	Z42	X43	Y43	Z43	X44	Y44	Z44	X45	Y45	Z45	X46	Y46	Z46	X47	Y47	Z47	X48	Y48	Z48	
500	2.5000	721.907077	1354.906499	-101.684002	716.537863	1353.152016	-463.911703	682.320517	1454.601497	-281.279959	683.914573	1270.787913	-286.699048	572.175344	1125.786855	11.284159	759.237876	956.440724	-76.809323	504.365299	1130.796298	-588.104777	737.566148	952.913783	-494.946231	96.033530	1245.359520	-251.190360	293.257951	1235.775567	-476.380762	331.745893	1226.553819	-76.640643	314.577297	1156.472312	-443.884317	343.077673	1158.937286	-115.438277	155.902618	1315.206938	-203.633911	141.409859	1308.895914	-298.333728	266.382716	1090.707807	-49.881463	194.549129	1103.301827	-468.648470	364.388484	993.457389	-44.269295	438.482034	946.569622	-58.982920	478.066207	869.045826	-67.912006	462.872451	970.214480	-73.399226	536.896913	785.468637	-81.735577	532.153151	762.149759	-212.375722	409.490937	687.340928	-67.133322	349.004247	626.730671	-87.054418	266.196864	599.289874	-86.224077	364.812351	607.990716	-118.126372	145.272427	547.098688	-93.280864	97.671725	595.043335	-139.902043	213.218189	332.472160	-151.352472	156.038382	375.396879	-78.832109	286.667354	977.565596	-481.383147	348.768191	919.629646	-473.631268	380.638959	938.229466	-469.844502	374.354688	834.042989	-462.222019	441.053188	712.084499	-436.392267	447.999834	707.053337	-310.718625	257.487718	319.126428	-416.623704	194.870358	277.345228	-382.867210	394.773780	224.598916	-456.954730	386.874326	596.413918	-454.658311	376.822727	512.636820	-438.761188	326.576568	440.078361	-434.808695	405.883117	505.161508	-416.390575	492.927841	244.738880	-390.483338	-214.627925	958.686265	-257.742427	-17.742708	80.709748	-461.015641	-17.804182	80.867009	-62.168599	
501	2.5050	721.390586	1354.174756	-99.936442	716.799862	1353.913509	-462.245913	681.864162	1454.708598	-279.267417	683.996895	1270.836270	-285.270740	571.296982	1124.765407	12.480773	758.891387	956.417332	-77.322057	505.367734	1131.434185	-587.577130	738.293706	953.015590	-494.725969	96.041357	1243.694729	-252.206128	293.272768	1233.894191	-476.897038	331.343721	1227.135190	-77.061338	315.535146	1155.231556	-444.808767	342.201866	1159.367861	-116.310429	155.041529	1314.225935	-205.273696	141.376174	1307.085046	-299.609306	269.032014	1092.501871	-50.255451	193.247862	1100.797647	-468.622986	368.498832	996.629227	-44.652442	443.192089	950.738209	-59.878781	483.800807	873.879362	-68.714397	467.035906	974.653844	-73.949364	544.111406	791.588485	-82.691537	538.383709	767.516234	-212.624405	416.778014	693.621029	-67.723554	355.974528	633.408218	-87.512943	273.142354	606.224151	-86.458255	371.488345	614.565006	-118.716674	151.807069	554.398935	-93.141181	104.187740	602.758322	-139.625121	218.746512	339.599135	-151.464969	161.647909	382.899698	-78.845802	283.321123	974.233482	-481.101040	344.315341	915.155222	-473.308740	376.376317	932.905894	-469.478486	368.329820	829.160940	-461.738927	433.635733	705.840719	-435.241424	440.343245	700.442111	-309.995447	251.971971	311.674869	-416.205577	189.437914	270.157620	-382.583513	389.213627	216.993446	-456.692290	379.981764	589.585471	-453.696951	370.345763	505.806347	-437.947010	320.516617	432.908530	-434.249861	399.298928	498.516296	-415.452511	487.480483	236.736018	-390.197640	-214.637960	958.681503	-257.759615	-17.755190	80.733840	-460.977942	-17.744586	80.852254	-62.238449	
502	2.5100	720.844238	1353.574398	-98.076470	717.132752	1354.559567	-460.500079	681.481321	1454.839876	-277.049799	683.956050	1270.839336	-283.775345	570.399285	1123.640443	13.846509	758.596208	956.508678	-77.887927	506.427244	1131.948633	-586.988686	738.871049	953.027898	-494.562364	95.584426	1242.721540	-252.862553	293.315902	1232.175274	-477.350267	330.976786	1227.766775	-77.232604	316.478928	1154.278182	-445.691512	342.248413	1160.285829	-116.242916	154.494869	1313.565769	-206.666016	141.436050	1305.635367	-300.889393	271.397935	1094.544930	-50.670961	191.979809	1098.639304	-468.526126	372.314484	999.894216	-45.218762	447.542589	955.310285	-60.677223	489.443097	879.056603	-69.427569	471.202334	979.518460	-75.324188	551.119910	798.267529	-83.700683	544.958163	773.778226	-213.904291	423.958052	700.224389	-68.444581	362.772888	640.195481	-88.080477	279.826574	613.454015	-86.812496	378.283836	621.190863	-119.224388	157.983360	561.465215	-93.244164	110.395724	609.915196	-139.638297	224.776248	346.763568	-151.539935	167.786873	389.996645	-79.008866	280.023930	971.132172	-480.827465	339.877052	910.918633	-473.025247	372.440852	928.248660	-469.480420	362.112245	824.531936	-461.325541	425.641314	699.835247	-434.151041	432.363636	694.320153	-309.438814	246.066222	304.592817	-415.770888	183.659770	263.396848	-382.405505	383.314262	209.516276	-456.390596	372.398967	583.187701	-453.071031	363.292160	499.362797	-437.330739	313.967115	426.139875	-433.777749	392.553803	491.459299	-413.009313	481.643740	229.050589	-390.003894	-214.638541	958.667289	-257.757737	-17.745919	80.639072	-460.943107	-17.810309	80.837924	-62.164981	
503	2.5150	720.336785	1352.963762	-96.121938	717.461398	1355.202400	-458.734508	681.215925	1454.943504	-274.984688	683.852843	1270.844779	-282.230083	569.545531	1122.571612	15.173075	758.383481	956.671195	-78.401837	507.506660	1132.584921	-586.396505	739.364958	952.998767	-494.414394	95.833567	1241.555114	-254.095066	293.432628	1230.805453	-477.742374	330.506265	1228.814216	-77.244913	317.423460	1153.658965	-446.526133	341.830176	1161.875732	-117.378849	153.608448	1313.715573	-207.981379	141.512154	1304.519721	-302.156182	273.387275	1096.895004	-51.151962	190.901189	1097.037522	-468.688830	375.671024	1003.305241	-45.757218	451.635461	959.856901	-61.511845	494.903393	884.476026	-70.091491	474.746135	984.606195	-76.231915	558.094646	804.949060	-84.765020	551.502069	780.138195	-215.129083	430.982576	706.878920	-69.294733	369.520696	647.141691	-88.661758	286.288343	620.898144	-87.141173	384.764313	628.029677	-119.781414	164.732413	568.761552	-93.342498	116.729695	617.036534	-139.519636	231.186135	353.869019	-151.638033	174.014816	397.197141	-79.281401	276.796668	968.371377	-480.621939	335.354096	906.939528	-472.697357	368.285260	923.545844	-469.292866	355.849978	820.087969	-460.680616	417.136668	694.214768	-433.285344	424.054536	688.340147	-308.954594	239.852467	297.925144	-415.468464	177.485043	257.057052	-382.375144	376.980653	202.576747	-456.246451	364.198803	577.303649	-452.567795	355.712401	493.420013	-436.831787	306.886688	419.804575	-433.371688	385.045592	485.712826	-412.470564	475.335546	221.736773	-389.708574	-214.665918	958.649236	-257.771067	-17.743506	80.611445	-460.949706	-17.793116	80.844688	-62.146917	
